<mxfile host="65bd71144e">
    <diagram id="imX3zTIdq4P2q1burw-U" name="Network Diagram">
        <mxGraphModel dx="2108" dy="2049" grid="1" gridSize="10" guides="1" tooltips="1" connect="1" arrows="1" fold="1" page="1" pageScale="1" pageWidth="850" pageHeight="1100" math="0" shadow="0">
            <root>
                <mxCell id="0"/>
                <mxCell id="1" parent="0"/>
                <mxCell id="_r9e_tUID13BqNJqQGiy-38" value="" style="rounded=1;whiteSpace=wrap;html=1;fillColor=#dae8fc;strokeColor=#6c8ebf;" vertex="1" parent="1">
                    <mxGeometry x="-205" y="-60" width="1250" height="740" as="geometry"/>
                </mxCell>
                <mxCell id="_r9e_tUID13BqNJqQGiy-34" value="" style="ellipse;whiteSpace=wrap;html=1;fillColor=#e1d5e7;strokeColor=#9673a6;" vertex="1" parent="1">
                    <mxGeometry x="-55" y="60" width="950" height="600" as="geometry"/>
                </mxCell>
                <mxCell id="21" style="edgeStyle=none;html=1;exitX=1;exitY=1;exitDx=0;exitDy=0;entryX=0;entryY=0;entryDx=0;entryDy=0;" parent="1" source="19" target="7" edge="1">
                    <mxGeometry relative="1" as="geometry"/>
                </mxCell>
                <mxCell id="19" value="" style="ellipse;whiteSpace=wrap;html=1;" parent="1" vertex="1">
                    <mxGeometry x="130" y="210" width="170" height="80" as="geometry"/>
                </mxCell>
                <mxCell id="22" style="edgeStyle=none;html=1;exitX=1;exitY=0;exitDx=0;exitDy=0;entryX=0;entryY=1;entryDx=0;entryDy=0;" parent="1" source="20" target="7" edge="1">
                    <mxGeometry relative="1" as="geometry"/>
                </mxCell>
                <mxCell id="20" value="" style="ellipse;whiteSpace=wrap;html=1;" parent="1" vertex="1">
                    <mxGeometry x="130" y="430" width="170" height="80" as="geometry"/>
                </mxCell>
                <mxCell id="23" style="edgeStyle=none;html=1;exitX=0;exitY=1;exitDx=0;exitDy=0;entryX=1;entryY=0;entryDx=0;entryDy=0;" parent="1" source="18" target="7" edge="1">
                    <mxGeometry relative="1" as="geometry"/>
                </mxCell>
                <mxCell id="18" value="" style="ellipse;whiteSpace=wrap;html=1;" parent="1" vertex="1">
                    <mxGeometry x="550" y="210" width="170" height="80" as="geometry"/>
                </mxCell>
                <mxCell id="7" value="" style="shape=sumEllipse;perimeter=ellipsePerimeter;whiteSpace=wrap;html=1;backgroundOutline=1;" parent="1" vertex="1">
                    <mxGeometry x="380" y="320" width="80" height="80" as="geometry"/>
                </mxCell>
                <mxCell id="24" style="edgeStyle=none;html=1;exitX=0;exitY=0;exitDx=0;exitDy=0;entryX=1;entryY=1;entryDx=0;entryDy=0;" parent="1" source="8" target="7" edge="1">
                    <mxGeometry relative="1" as="geometry"/>
                </mxCell>
                <mxCell id="8" value="" style="ellipse;whiteSpace=wrap;html=1;" parent="1" vertex="1">
                    <mxGeometry x="550" y="430" width="170" height="80" as="geometry"/>
                </mxCell>
                <mxCell id="14" value="fs-reactjs-server" style="text;whiteSpace=wrap;align=center;verticalAlign=middle;" parent="1" vertex="1">
                    <mxGeometry x="155" y="240" width="120" height="20" as="geometry"/>
                </mxCell>
                <mxCell id="15" value="bs-keycloak-server" style="text;whiteSpace=wrap;align=center;verticalAlign=middle;" parent="1" vertex="1">
                    <mxGeometry x="575" y="240" width="120" height="20" as="geometry"/>
                </mxCell>
                <mxCell id="16" value="bs-keycloak-mariadb-server" style="text;whiteSpace=wrap;align=center;verticalAlign=middle;" parent="1" vertex="1">
                    <mxGeometry x="550" y="460" width="170" height="20" as="geometry"/>
                </mxCell>
                <mxCell id="17" value="bs-flask-server" style="text;whiteSpace=wrap;align=center;verticalAlign=middle;" parent="1" vertex="1">
                    <mxGeometry x="155" y="460" width="120" height="20" as="geometry"/>
                </mxCell>
                <mxCell id="_r9e_tUID13BqNJqQGiy-24" value="&lt;div&gt;&lt;font color=&quot;#000000&quot;&gt;IPAddress: &quot;172.18.0.5&quot;&lt;/font&gt;&lt;/div&gt;&lt;div&gt;&lt;font color=&quot;#000000&quot;&gt;Gateway: &quot;172.18.0.1&quot;&lt;/font&gt;&lt;/div&gt;&lt;div&gt;&lt;font color=&quot;#000000&quot;&gt;IPPrefixLen: 16&lt;/font&gt;&lt;/div&gt;" style="text;html=1;align=left;verticalAlign=middle;whiteSpace=wrap;rounded=0;strokeColor=#82b366;fillColor=#d5e8d4;" vertex="1" parent="1">
                    <mxGeometry x="140" y="160" width="150" height="50" as="geometry"/>
                </mxCell>
                <mxCell id="_r9e_tUID13BqNJqQGiy-25" value="&lt;div&gt;&lt;font color=&quot;#000000&quot;&gt;IPAddress: &quot;&quot;&lt;/font&gt;&lt;/div&gt;&lt;div&gt;&lt;font color=&quot;#000000&quot;&gt;Gateway: &quot;&quot;&lt;/font&gt;&lt;/div&gt;&lt;div&gt;&lt;font color=&quot;#000000&quot;&gt;IPPrefixLen: 0&lt;/font&gt;&lt;/div&gt;" style="text;html=1;align=left;verticalAlign=middle;whiteSpace=wrap;rounded=0;strokeColor=#82b366;fillColor=#d5e8d4;" vertex="1" parent="1">
                    <mxGeometry x="560" y="160" width="150" height="50" as="geometry"/>
                </mxCell>
                <mxCell id="_r9e_tUID13BqNJqQGiy-26" value="&lt;div&gt;&lt;font color=&quot;#000000&quot;&gt;IPAddress: &quot;172.18.0.3&quot;&lt;/font&gt;&lt;/div&gt;&lt;div&gt;&lt;font color=&quot;#000000&quot;&gt;Gateway: &quot;172.18.0.1&quot;&lt;/font&gt;&lt;/div&gt;&lt;div&gt;&lt;font color=&quot;#000000&quot;&gt;IPPrefixLen: 16&lt;/font&gt;&lt;/div&gt;" style="text;html=1;align=left;verticalAlign=middle;whiteSpace=wrap;rounded=0;strokeColor=#82b366;fillColor=#d5e8d4;" vertex="1" parent="1">
                    <mxGeometry x="560" y="510" width="150" height="50" as="geometry"/>
                </mxCell>
                <mxCell id="_r9e_tUID13BqNJqQGiy-27" value="&lt;div&gt;&lt;font color=&quot;#000000&quot;&gt;IPAddress: &quot;172.18.0.4&quot;&lt;/font&gt;&lt;/div&gt;&lt;div&gt;&lt;font color=&quot;#000000&quot;&gt;Gateway: &quot;172.18.0.1&quot;&lt;/font&gt;&lt;/div&gt;&lt;div&gt;&lt;font color=&quot;#000000&quot;&gt;IPPrefixLen: 16&lt;/font&gt;&lt;/div&gt;" style="text;html=1;align=left;verticalAlign=middle;whiteSpace=wrap;rounded=0;strokeColor=#82b366;fillColor=#d5e8d4;" vertex="1" parent="1">
                    <mxGeometry x="140" y="510" width="150" height="50" as="geometry"/>
                </mxCell>
                <mxCell id="_r9e_tUID13BqNJqQGiy-28" value="" style="endArrow=classic;html=1;strokeWidth=3;fillColor=#f8cecc;strokeColor=#b85450;entryX=1;entryY=1;entryDx=0;entryDy=0;exitX=0.5;exitY=0;exitDx=0;exitDy=0;" edge="1" parent="1" source="20" target="18">
                    <mxGeometry width="50" height="50" relative="1" as="geometry">
                        <mxPoint x="300" y="540" as="sourcePoint"/>
                        <mxPoint x="620" y="300" as="targetPoint"/>
                        <Array as="points">
                            <mxPoint x="1180" y="370"/>
                        </Array>
                    </mxGeometry>
                </mxCell>
                <mxCell id="_r9e_tUID13BqNJqQGiy-29" value="" style="endArrow=classic;html=1;strokeWidth=3;fillColor=#f8cecc;strokeColor=#b85450;entryX=0.5;entryY=0;entryDx=0;entryDy=0;exitX=0.5;exitY=1;exitDx=0;exitDy=0;" edge="1" parent="1" source="18" target="8">
                    <mxGeometry width="50" height="50" relative="1" as="geometry">
                        <mxPoint x="310" y="550" as="sourcePoint"/>
                        <mxPoint x="630" y="310" as="targetPoint"/>
                    </mxGeometry>
                </mxCell>
                <mxCell id="_r9e_tUID13BqNJqQGiy-31" value="" style="endArrow=none;html=1;strokeWidth=3;fillColor=#f8cecc;strokeColor=#b85450;entryX=0.306;entryY=0.997;entryDx=0;entryDy=0;exitX=1;exitY=0.5;exitDx=0;exitDy=0;entryPerimeter=0;endFill=0;startArrow=classic;startFill=1;" edge="1" parent="1" source="20" target="18">
                    <mxGeometry width="50" height="50" relative="1" as="geometry">
                        <mxPoint x="225" y="440" as="sourcePoint"/>
                        <mxPoint x="560" y="260" as="targetPoint"/>
                        <Array as="points">
                            <mxPoint x="410" y="780"/>
                        </Array>
                    </mxGeometry>
                </mxCell>
                <mxCell id="_r9e_tUID13BqNJqQGiy-33" value="&lt;div&gt;MySQL&lt;/div&gt;(&lt;span style=&quot;color: rgb(0, 0, 0);&quot;&gt;Port 3306)&lt;/span&gt;" style="text;html=1;align=center;verticalAlign=middle;whiteSpace=wrap;rounded=0;" vertex="1" parent="1">
                    <mxGeometry x="640" y="345" width="70" height="30" as="geometry"/>
                </mxCell>
                <mxCell id="_r9e_tUID13BqNJqQGiy-35" value="inet 172.18.0.1/16 brd 172.18.255.255 scope global br-e1a33dfdd0bc" style="text;html=1;align=center;verticalAlign=middle;whiteSpace=wrap;rounded=0;strokeColor=#82b366;fillColor=#d5e8d4;fontSize=6;" vertex="1" parent="1">
                    <mxGeometry x="325" y="305" width="190" height="10" as="geometry"/>
                </mxCell>
                <mxCell id="_r9e_tUID13BqNJqQGiy-36" value="sso_auth_server" style="text;whiteSpace=wrap;align=center;verticalAlign=middle;fontStyle=5" vertex="1" parent="1">
                    <mxGeometry x="360" y="285" width="120" height="20" as="geometry"/>
                </mxCell>
                <mxCell id="_r9e_tUID13BqNJqQGiy-39" value="&lt;div&gt;&lt;font color=&quot;#000000&quot;&gt;inet 192.168.68.130/24 metric 100 brd 192.168.68.255 scope global dynamic enp0s8&lt;/font&gt;&lt;/div&gt;" style="text;html=1;align=center;verticalAlign=middle;whiteSpace=wrap;rounded=0;strokeColor=#82b366;fillColor=#d5e8d4;" vertex="1" parent="1">
                    <mxGeometry x="180" y="-100" width="480" height="30" as="geometry"/>
                </mxCell>
                <mxCell id="_r9e_tUID13BqNJqQGiy-40" value="enp0s8" style="text;whiteSpace=wrap;align=center;verticalAlign=middle;fontStyle=5" vertex="1" parent="1">
                    <mxGeometry x="360" y="-60" width="120" height="20" as="geometry"/>
                </mxCell>
                <mxCell id="_r9e_tUID13BqNJqQGiy-41" value="&lt;font style=&quot;font-size: 36px;&quot;&gt;Server-level&lt;/font&gt;" style="text;html=1;align=center;verticalAlign=middle;whiteSpace=wrap;rounded=0;fontStyle=5" vertex="1" parent="1">
                    <mxGeometry x="-150" y="-40" width="245" height="30" as="geometry"/>
                </mxCell>
                <mxCell id="_r9e_tUID13BqNJqQGiy-42" value="&lt;font style=&quot;font-size: 36px;&quot;&gt;Docker-level&lt;/font&gt;" style="text;html=1;align=center;verticalAlign=middle;whiteSpace=wrap;rounded=0;fontStyle=5" vertex="1" parent="1">
                    <mxGeometry x="-55" y="345" width="245" height="30" as="geometry"/>
                </mxCell>
                <mxCell id="_r9e_tUID13BqNJqQGiy-43" value="" style="endArrow=classic;html=1;strokeWidth=3;fillColor=#f8cecc;strokeColor=#b85450;entryX=1;entryY=0.5;entryDx=0;entryDy=0;" edge="1" parent="1" target="8">
                    <mxGeometry width="50" height="50" relative="1" as="geometry">
                        <mxPoint x="920" y="780" as="sourcePoint"/>
                        <mxPoint x="790" y="740" as="targetPoint"/>
                    </mxGeometry>
                </mxCell>
                <mxCell id="_r9e_tUID13BqNJqQGiy-44" value="&lt;div&gt;RESTFUL&lt;/div&gt;(&lt;span style=&quot;color: rgb(0, 0, 0);&quot;&gt;Port 8090)&lt;/span&gt;" style="text;html=1;align=center;verticalAlign=middle;whiteSpace=wrap;rounded=0;" vertex="1" parent="1">
                    <mxGeometry x="810" y="730" width="70" height="30" as="geometry"/>
                </mxCell>
                <mxCell id="_r9e_tUID13BqNJqQGiy-45" value="" style="endArrow=classic;html=1;strokeWidth=3;fillColor=#f8cecc;strokeColor=#b85450;entryX=1;entryY=1;entryDx=0;entryDy=0;" edge="1" parent="1" target="20">
                    <mxGeometry width="50" height="50" relative="1" as="geometry">
                        <mxPoint x="370" y="770" as="sourcePoint"/>
                        <mxPoint x="540" y="530" as="targetPoint"/>
                    </mxGeometry>
                </mxCell>
                <mxCell id="_r9e_tUID13BqNJqQGiy-46" value="&lt;div&gt;RESTFUL&lt;/div&gt;(&lt;span style=&quot;color: rgb(0, 0, 0);&quot;&gt;Port 8899)&lt;/span&gt;" style="text;html=1;align=center;verticalAlign=middle;whiteSpace=wrap;rounded=0;" vertex="1" parent="1">
                    <mxGeometry x="350" y="780" width="70" height="30" as="geometry"/>
                </mxCell>
                <mxCell id="_r9e_tUID13BqNJqQGiy-47" value="" style="endArrow=classic;html=1;strokeWidth=3;fillColor=#f8cecc;strokeColor=#b85450;entryX=1;entryY=0.5;entryDx=0;entryDy=0;" edge="1" parent="1">
                    <mxGeometry width="50" height="50" relative="1" as="geometry">
                        <mxPoint x="1180" y="340" as="sourcePoint"/>
                        <mxPoint x="720" y="250" as="targetPoint"/>
                    </mxGeometry>
                </mxCell>
                <mxCell id="_r9e_tUID13BqNJqQGiy-49" value="&lt;div&gt;RESTFUL&lt;/div&gt;(&lt;span style=&quot;color: rgb(0, 0, 0);&quot;&gt;Port 8080)&lt;/span&gt;" style="text;html=1;align=center;verticalAlign=middle;whiteSpace=wrap;rounded=0;" vertex="1" parent="1">
                    <mxGeometry x="1180" y="345" width="70" height="30" as="geometry"/>
                </mxCell>
                <mxCell id="_r9e_tUID13BqNJqQGiy-51" value="" style="endArrow=classic;html=1;strokeWidth=3;fillColor=#f8cecc;strokeColor=#b85450;entryX=0;entryY=0.5;entryDx=0;entryDy=0;" edge="1" parent="1" target="19">
                    <mxGeometry width="50" height="50" relative="1" as="geometry">
                        <mxPoint x="-314" y="250" as="sourcePoint"/>
                        <mxPoint x="285" y="508" as="targetPoint"/>
                    </mxGeometry>
                </mxCell>
                <mxCell id="_r9e_tUID13BqNJqQGiy-52" value="&lt;div&gt;RESTFUL&lt;/div&gt;(&lt;span style=&quot;color: rgb(0, 0, 0);&quot;&gt;Port 9001)&lt;/span&gt;" style="text;html=1;align=center;verticalAlign=middle;whiteSpace=wrap;rounded=0;" vertex="1" parent="1">
                    <mxGeometry x="-385" y="247" width="70" height="30" as="geometry"/>
                </mxCell>
                <mxCell id="_r9e_tUID13BqNJqQGiy-53" value="" style="endArrow=classic;html=1;strokeWidth=3;fillColor=#f8cecc;strokeColor=#b85450;entryX=0;entryY=1;entryDx=0;entryDy=0;exitX=0;exitY=0.5;exitDx=0;exitDy=0;" edge="1" parent="1" source="20" target="19">
                    <mxGeometry width="50" height="50" relative="1" as="geometry">
                        <mxPoint x="380" y="780" as="sourcePoint"/>
                        <mxPoint x="285" y="508" as="targetPoint"/>
                        <Array as="points">
                            <mxPoint x="-320" y="278"/>
                        </Array>
                    </mxGeometry>
                </mxCell>
                <mxCell id="_r9e_tUID13BqNJqQGiy-54" value="" style="endArrow=classic;html=1;strokeWidth=3;fillColor=#f8cecc;strokeColor=#b85450;entryX=0.5;entryY=0;entryDx=0;entryDy=0;exitX=0.5;exitY=1;exitDx=0;exitDy=0;" edge="1" parent="1" source="19" target="20">
                    <mxGeometry width="50" height="50" relative="1" as="geometry">
                        <mxPoint x="380" y="780" as="sourcePoint"/>
                        <mxPoint x="285" y="508" as="targetPoint"/>
                    </mxGeometry>
                </mxCell>
                <mxCell id="_r9e_tUID13BqNJqQGiy-55" value="" style="shape=sumEllipse;perimeter=ellipsePerimeter;whiteSpace=wrap;html=1;backgroundOutline=1;" vertex="1" parent="1">
                    <mxGeometry x="580" y="-10" width="80" height="80" as="geometry"/>
                </mxCell>
                <mxCell id="_r9e_tUID13BqNJqQGiy-56" style="edgeStyle=none;html=1;exitX=0.5;exitY=0;exitDx=0;exitDy=0;entryX=0;entryY=1;entryDx=0;entryDy=0;" edge="1" parent="1" source="7" target="_r9e_tUID13BqNJqQGiy-55">
                    <mxGeometry relative="1" as="geometry">
                        <mxPoint x="285" y="288" as="sourcePoint"/>
                        <mxPoint x="402" y="342" as="targetPoint"/>
                    </mxGeometry>
                </mxCell>
                <mxCell id="_r9e_tUID13BqNJqQGiy-57" style="edgeStyle=none;html=1;exitX=0.5;exitY=1;exitDx=0;exitDy=0;entryX=0;entryY=0;entryDx=0;entryDy=0;" edge="1" parent="1" source="_r9e_tUID13BqNJqQGiy-40" target="_r9e_tUID13BqNJqQGiy-55">
                    <mxGeometry relative="1" as="geometry">
                        <mxPoint x="430" y="330" as="sourcePoint"/>
                        <mxPoint x="602" y="68" as="targetPoint"/>
                    </mxGeometry>
                </mxCell>
            </root>
        </mxGraphModel>
    </diagram>
</mxfile>